<?xml version="1.0" encoding="utf-8"?>
<!-- Generator: Adobe Illustrator 14.0.0, SVG Export Plug-In . SVG Version: 6.00 Build 43363)  -->
<!DOCTYPE svg PUBLIC "-//W3C//DTD SVG 1.1//EN" "http://www.w3.org/Graphics/SVG/1.1/DTD/svg11.dtd">
<svg version="1.1" id="Layer_1" xmlns="http://www.w3.org/2000/svg" xmlns:xlink="http://www.w3.org/1999/xlink" x="0px" y="0px"
	 width="360px" height="144px" viewBox="0 0 360 144" enable-background="new 0 0 360 144" xml:space="preserve">
<g>
	<path fill="#2E7B3C" d="M50.096,82.481h15.433c3.323,4.122,4.985,8.468,4.985,13.04c0,5.318-1.948,9.784-5.842,13.398
		c-3.895,3.616-8.687,5.424-14.376,5.424c-7.391,0-13.665-2.804-18.822-8.414c-5.158-5.609-7.736-12.441-7.736-20.497
		c0-8.081,2.625-14.807,7.876-20.178c5.25-5.369,11.81-8.054,19.679-8.054c2.685,0,5.663,0.544,8.932,1.634v16.19
		c-2.552-1.195-4.878-1.794-6.978-1.794c-3.802,0-6.906,1.184-9.312,3.549c-2.406,2.367-3.608,5.438-3.608,9.212
		c0,3.854,1.116,6.913,3.349,9.172c2.233,2.26,5.25,3.39,9.053,3.39c2.418,0,3.629-0.705,3.629-2.113
		c0-1.063-0.798-1.596-2.393-1.596h-3.869V82.481z"/>
	<path fill="#2E7B3C" d="M109.339,95.521H86.729c-0.346-1.143-0.518-2.193-0.518-3.15c0-1.328,0.239-2.632,0.717-3.907h7.577
		c-0.532-2.951-2.193-4.427-4.984-4.427c-1.861,0-3.376,0.791-4.546,2.373c-1.171,1.582-1.755,3.609-1.755,6.082
		c0,2.578,0.565,4.664,1.695,6.26c1.129,1.596,2.612,2.393,4.446,2.393c1.489,0,2.924-0.744,4.307-2.232l8.494,10.208
		c-3.961,3.11-8.361,4.666-13.199,4.666c-5.902,0-10.86-1.98-14.874-5.942c-4.015-3.96-6.022-8.865-6.022-14.715
		c0-5.822,2.027-10.74,6.082-14.754c4.053-4.014,9.032-6.022,14.934-6.022c5.769,0,10.614,1.961,14.535,5.881
		c3.921,3.923,5.882,8.754,5.882,14.496C109.499,93.315,109.445,94.246,109.339,95.521z"/>
	<path fill="#2E7B3C" d="M128.665,72.393c5.637,0,10.468,2.027,14.496,6.082c4.028,4.054,6.042,8.912,6.042,14.574
		c0,5.743-2.041,10.635-6.121,14.676s-9.006,6.062-14.774,6.062c-5.77,0-10.701-2.027-14.795-6.082
		c-4.094-4.053-6.141-8.938-6.141-14.655c0-5.822,2.047-10.72,6.141-14.694C117.606,74.381,122.657,72.393,128.665,72.393z
		 M128.267,87.107c-1.596,0-2.952,0.578-4.068,1.734c-1.117,1.157-1.675,2.574-1.675,4.248c0,1.648,0.564,3.057,1.695,4.227
		c1.13,1.17,2.479,1.755,4.048,1.755c1.594,0,2.957-0.585,4.087-1.755c1.13-1.17,1.695-2.578,1.695-4.227
		c0-1.674-0.558-3.091-1.674-4.248C131.258,87.686,129.888,87.107,128.267,87.107z"/>
	<path fill="#6DBE45" d="M149.706,112.988V73.749c0-4.865,1.476-8.84,4.427-11.923c2.951-3.084,6.779-4.626,11.484-4.626
		c5.583,0,9.876,2.565,12.881,7.696c1.834-2.765,3.802-4.738,5.901-5.921c2.101-1.183,4.692-1.774,7.776-1.774
		c4.893,0,8.639,1.542,11.246,4.626c2.605,3.083,3.908,7.523,3.908,13.318v37.844h-16.191v-35.41c0-1.756-0.14-2.918-0.418-3.49
		c-0.279-0.571-0.845-0.857-1.695-0.857c-1.596,0-2.393,1.356-2.393,4.067v35.69h-16.19v-35.41c0-1.729-0.146-2.886-0.439-3.471
		c-0.292-0.584-0.863-0.877-1.714-0.877c-1.595,0-2.393,1.449-2.393,4.348v35.41H149.706z"/>
	<path fill="#6DBE45" d="M229.168,72.393c5.635,0,10.469,2.027,14.496,6.082c4.027,4.054,6.041,8.912,6.041,14.574
		c0,5.743-2.041,10.635-6.121,14.676c-4.082,4.041-9.006,6.062-14.775,6.062s-10.699-2.027-14.795-6.082
		c-4.094-4.053-6.141-8.938-6.141-14.655c0-5.822,2.047-10.72,6.141-14.694C218.109,74.381,223.16,72.393,229.168,72.393z
		 M228.77,87.107c-1.596,0-2.951,0.578-4.068,1.734c-1.115,1.157-1.674,2.574-1.674,4.248c0,1.648,0.564,3.057,1.693,4.227
		c1.131,1.17,2.48,1.755,4.049,1.755c1.594,0,2.957-0.585,4.088-1.755c1.129-1.17,1.693-2.578,1.693-4.227
		c0-1.674-0.559-3.091-1.674-4.248C231.76,87.686,230.391,87.107,228.77,87.107z"/>
	<path fill="#6DBE45" d="M269.07,72.393c5.637,0,10.469,2.027,14.496,6.082c4.027,4.054,6.041,8.912,6.041,14.574
		c0,5.743-2.039,10.635-6.121,14.676s-9.006,6.062-14.775,6.062c-5.768,0-10.699-2.027-14.793-6.082
		c-4.096-4.053-6.141-8.938-6.141-14.655c0-5.822,2.045-10.72,6.141-14.694C258.012,74.381,263.063,72.393,269.07,72.393z
		 M268.672,87.107c-1.596,0-2.951,0.578-4.068,1.734c-1.115,1.157-1.674,2.574-1.674,4.248c0,1.648,0.564,3.057,1.695,4.227
		c1.129,1.17,2.479,1.755,4.047,1.755c1.596,0,2.957-0.585,4.088-1.755c1.129-1.17,1.695-2.578,1.695-4.227
		c0-1.674-0.559-3.091-1.676-4.248C271.664,87.686,270.293,87.107,268.672,87.107z"/>
	<path fill="#6DBE45" d="M315.035,73.789V89.5c-2.102,0-3.543,0.393-4.328,1.177c-0.783,0.784-1.281,2.333-1.494,4.646
		c-0.691,7.684-3.668,13.106-8.932,16.271c-2.791,1.648-6.754,2.473-11.885,2.473h-2.072V98.273h0.678
		c2.393,0,4.1-0.498,5.123-1.496c1.023-0.996,1.615-2.744,1.775-5.244c0.211-4.066,0.59-6.924,1.137-8.572
		c0.545-1.648,1.654-3.283,3.33-4.905c2.924-2.844,6.977-4.267,12.162-4.267H315.035z"/>
	<path fill="#6DBE45" d="M353.264,95.521h-22.609c-0.348-1.143-0.52-2.193-0.52-3.15c0-1.328,0.238-2.632,0.717-3.907h7.578
		c-0.533-2.951-2.193-4.427-4.986-4.427c-1.859,0-3.375,0.791-4.545,2.373s-1.754,3.609-1.754,6.082c0,2.578,0.564,4.664,1.693,6.26
		c1.131,1.596,2.613,2.393,4.447,2.393c1.488,0,2.924-0.744,4.307-2.232l8.494,10.208c-3.963,3.11-8.361,4.666-13.201,4.666
		c-5.9,0-10.859-1.98-14.873-5.942c-4.016-3.96-6.021-8.865-6.021-14.715c0-5.822,2.027-10.74,6.082-14.754
		c4.053-4.014,9.031-6.022,14.934-6.022c5.768,0,10.613,1.961,14.535,5.881c3.922,3.923,5.883,8.754,5.883,14.496
		C353.424,93.315,353.369,94.246,353.264,95.521z"/>
	<path fill="#6DBE45" d="M211.127,54.054c0,0,16.02-11.325,17.398-12.178c1.391-0.859-5.355-13.18-8.553-11.045
		c-3.025,2.023,4.691,9.65,2.713,10.84c-2.348,1.412-4.9-5.701-6.963-4.241c-2.893,2.043,3.445,6.977,1.629,8.259
		c-2.313,1.636-3.504-3.591-5.256-2.353c-2.063,1.459,1.758,4.301,0.738,5.425c-1.879,2.069-5.602,3.462-5.602,3.462L211.127,54.054
		z"/>
	<path fill="#6DBE45" d="M204.164,56.749c0,0-28.78-7.069-31.19-7.507c-2.428-0.438,0.246-21.489,5.92-20.25
		c5.374,1.169-1.263,16.156,2.179,16.736c4.079,0.688,3.737-10.722,7.445-9.811c5.192,1.276-0.989,11.711,2.274,12.514
		c4.154,1.02,2.941-6.989,6.088-6.216c3.709,0.915-0.094,7.018,1.961,8.034c3.785,1.875,9.789,1.776,9.789,1.776L204.164,56.749z"/>
	<path fill-rule="evenodd" clip-rule="evenodd" fill="#6DBE45" d="M216.105,63.974c5.918-1.979,13.174,0.403,17.012-2.934
		c-0.463-10.487-13.277-8.621-22.291-10.56c3.957-1.718-0.748-0.301-4.529,0.981c-5.758-1.369-16.789,8.424-14.242,8.992
		c3.4,0.271,1.844,5.21,1.227,6.079c4.617,4.313,8.045,8.547,14.043,9.931C207.76,74.808,215.781,65.74,216.105,63.974z"/>
</g>
</svg>
