<?xml version="1.0" encoding="utf-8"?>
<!-- Generator: Adobe Illustrator 14.0.0, SVG Export Plug-In . SVG Version: 6.00 Build 43363)  -->
<!DOCTYPE svg PUBLIC "-//W3C//DTD SVG 1.1//EN" "http://www.w3.org/Graphics/SVG/1.1/DTD/svg11.dtd">
<svg version="1.1" id="Layer_1" xmlns="http://www.w3.org/2000/svg" xmlns:xlink="http://www.w3.org/1999/xlink" x="0px" y="0px"
	 width="64px" height="19.75px" viewBox="0 0 64 19.75" enable-background="new 0 0 64 19.75" xml:space="preserve">
<g>
	<path fill="#2E7B3C" d="M6.76,11.696h2.819c0.607,0.754,0.912,1.548,0.912,2.383c0,0.973-0.356,1.787-1.068,2.448
		c-0.711,0.66-1.587,0.991-2.626,0.991c-1.35,0-2.497-0.512-3.44-1.537c-0.942-1.025-1.413-2.274-1.413-3.745
		c0-1.478,0.48-2.706,1.438-3.688c0.96-0.981,2.158-1.472,3.597-1.472c0.49,0,1.034,0.099,1.631,0.298v2.959
		c-0.466-0.218-0.891-0.328-1.275-0.328c-0.695,0-1.262,0.217-1.702,0.648c-0.44,0.433-0.659,0.993-0.659,1.683
		c0,0.705,0.205,1.265,0.612,1.677c0.409,0.413,0.959,0.62,1.654,0.62c0.442,0,0.664-0.13,0.664-0.386
		c0-0.195-0.146-0.293-0.438-0.293H6.76V11.696z"/>
	<path fill="#2E7B3C" d="M17.585,14.079h-4.131c-0.063-0.208-0.095-0.4-0.095-0.575c0-0.242,0.043-0.481,0.131-0.714h1.384
		c-0.096-0.54-0.4-0.81-0.91-0.81c-0.34,0-0.617,0.145-0.832,0.434c-0.213,0.289-0.32,0.659-0.32,1.111
		c0,0.472,0.104,0.854,0.31,1.144c0.207,0.292,0.478,0.438,0.813,0.438c0.272,0,0.534-0.136,0.787-0.407l1.552,1.865
		c-0.724,0.567-1.528,0.852-2.412,0.852c-1.078,0-1.984-0.361-2.717-1.086c-0.733-0.723-1.101-1.618-1.101-2.688
		c0-1.063,0.371-1.962,1.111-2.695c0.741-0.733,1.651-1.101,2.729-1.101c1.055,0,1.94,0.358,2.657,1.075
		c0.716,0.716,1.075,1.599,1.075,2.648C17.615,13.676,17.604,13.846,17.585,14.079z"/>
	<path fill="#2E7B3C" d="M21.117,9.853c1.03,0,1.913,0.37,2.649,1.111s1.103,1.628,1.103,2.664c0,1.049-0.372,1.942-1.118,2.681
		c-0.746,0.739-1.645,1.107-2.699,1.107c-1.055,0-1.956-0.37-2.704-1.111c-0.749-0.74-1.123-1.632-1.123-2.677
		c0-1.064,0.374-1.96,1.123-2.686C19.096,10.216,20.019,9.853,21.117,9.853z M21.044,12.542c-0.292,0-0.54,0.105-0.743,0.316
		c-0.205,0.211-0.307,0.471-0.307,0.776c0,0.301,0.103,0.559,0.31,0.772c0.207,0.214,0.452,0.32,0.739,0.32
		c0.292,0,0.541-0.106,0.748-0.32c0.207-0.214,0.31-0.472,0.31-0.772c0-0.306-0.102-0.565-0.306-0.776
		C21.59,12.647,21.34,12.542,21.044,12.542z"/>
	<path fill="#6DBE45" d="M24.961,17.271v-7.17c0-0.889,0.27-1.615,0.81-2.179s1.239-0.845,2.099-0.845
		c1.021,0,1.805,0.468,2.354,1.405c0.335-0.504,0.695-0.866,1.078-1.082c0.385-0.216,0.857-0.323,1.421-0.323
		c0.895,0,1.579,0.281,2.056,0.845s0.714,1.375,0.714,2.434v6.915h-2.959V10.8c0-0.32-0.024-0.532-0.075-0.637
		c-0.052-0.104-0.155-0.157-0.311-0.157c-0.291,0-0.437,0.248-0.437,0.743v6.521h-2.959V10.8c0-0.315-0.026-0.526-0.081-0.634
		c-0.053-0.106-0.157-0.16-0.313-0.16c-0.292,0-0.437,0.265-0.437,0.794v6.471H24.961z"/>
	<path fill="#6DBE45" d="M39.482,9.853c1.029,0,1.912,0.37,2.648,1.111c0.735,0.741,1.104,1.628,1.104,2.664
		c0,1.049-0.373,1.942-1.12,2.681c-0.745,0.739-1.645,1.107-2.698,1.107c-1.056,0-1.956-0.37-2.704-1.111
		c-0.749-0.74-1.122-1.632-1.122-2.677c0-1.064,0.373-1.96,1.122-2.686C37.461,10.216,38.385,9.853,39.482,9.853z M39.408,12.542
		c-0.29,0-0.538,0.105-0.742,0.316c-0.205,0.211-0.306,0.471-0.306,0.776c0,0.301,0.103,0.559,0.309,0.772
		c0.207,0.214,0.454,0.32,0.739,0.32c0.292,0,0.541-0.106,0.748-0.32c0.206-0.214,0.31-0.472,0.31-0.772
		c0-0.306-0.103-0.565-0.307-0.776S39.706,12.542,39.408,12.542z"/>
	<path fill="#6DBE45" d="M46.773,9.853c1.03,0,1.913,0.37,2.649,1.111c0.735,0.741,1.104,1.628,1.104,2.664
		c0,1.049-0.373,1.942-1.119,2.681c-0.745,0.739-1.646,1.107-2.699,1.107s-1.955-0.37-2.704-1.111
		c-0.748-0.74-1.121-1.632-1.121-2.677c0-1.064,0.373-1.96,1.121-2.686C44.753,10.216,45.676,9.853,46.773,9.853z M46.701,12.542
		c-0.293,0-0.54,0.105-0.744,0.316c-0.203,0.211-0.306,0.471-0.306,0.776c0,0.301,0.103,0.559,0.311,0.772
		c0.205,0.214,0.452,0.32,0.739,0.32c0.292,0,0.539-0.106,0.746-0.32s0.311-0.472,0.311-0.772c0-0.306-0.103-0.565-0.306-0.776
		C47.248,12.647,46.996,12.542,46.701,12.542z"/>
	<path fill="#6DBE45" d="M55.173,10.107v2.872c-0.385,0-0.647,0.07-0.791,0.214s-0.234,0.427-0.273,0.849
		c-0.126,1.404-0.67,2.396-1.633,2.974c-0.51,0.301-1.233,0.452-2.171,0.452h-0.379v-2.886h0.124c0.438,0,0.75-0.091,0.936-0.273
		c0.188-0.183,0.297-0.502,0.325-0.959c0.039-0.742,0.108-1.265,0.208-1.565c0.1-0.302,0.302-0.601,0.608-0.896
		c0.534-0.52,1.274-0.78,2.223-0.78H55.173z"/>
	<path fill="#6DBE45" d="M62.157,14.079h-4.13c-0.064-0.208-0.096-0.4-0.096-0.575c0-0.242,0.044-0.481,0.131-0.714h1.385
		c-0.097-0.54-0.401-0.81-0.911-0.81c-0.339,0-0.616,0.145-0.831,0.434c-0.213,0.289-0.32,0.659-0.32,1.111
		c0,0.472,0.104,0.854,0.311,1.144c0.206,0.292,0.478,0.438,0.813,0.438c0.271,0,0.534-0.136,0.786-0.407l1.553,1.865
		c-0.725,0.567-1.528,0.852-2.412,0.852c-1.078,0-1.984-0.361-2.718-1.086c-0.734-0.723-1.101-1.618-1.101-2.688
		c0-1.063,0.37-1.962,1.111-2.695c0.74-0.733,1.65-1.101,2.729-1.101c1.054,0,1.939,0.358,2.657,1.075
		c0.716,0.716,1.074,1.599,1.074,2.648C62.188,13.676,62.177,13.846,62.157,14.079z"/>
	<path fill="#6DBE45" d="M36.185,6.502c0,0,2.928-2.07,3.181-2.226c0.253-0.157-0.979-2.408-1.564-2.018
		c-0.552,0.369,0.858,1.763,0.496,1.979c-0.429,0.259-0.896-1.041-1.271-0.774c-0.528,0.373,0.629,1.275,0.297,1.51
		c-0.422,0.299-0.641-0.657-0.96-0.431c-0.376,0.268,0.32,0.786,0.135,0.992c-0.344,0.378-1.024,0.633-1.024,0.633L36.185,6.502z"/>
	<path fill="#6DBE45" d="M34.913,6.994c0,0-5.26-1.292-5.7-1.372c-0.444-0.079,0.045-3.927,1.082-3.7
		c0.981,0.214-0.23,2.952,0.398,3.059c0.745,0.125,0.684-1.96,1.36-1.793c0.949,0.233-0.182,2.14,0.416,2.286
		c0.76,0.187,0.537-1.276,1.112-1.135c0.678,0.166-0.018,1.282,0.358,1.467c0.692,0.344,1.788,0.325,1.788,0.325L34.913,6.994z"/>
	<path fill-rule="evenodd" clip-rule="evenodd" fill="#6DBE45" d="M37.095,8.314c1.082-0.361,2.407,0.073,3.109-0.536
		c-0.085-1.916-2.427-1.575-4.074-1.93c0.723-0.313-0.136-0.056-0.827,0.179c-1.053-0.25-3.067,1.54-2.603,1.643
		c0.621,0.051,0.337,0.953,0.224,1.111c0.844,0.789,1.471,1.563,2.566,1.815C35.569,10.294,37.035,8.637,37.095,8.314z"/>
</g>
</svg>
