<?xml version="1.0" encoding="utf-8"?>
<!-- Generator: Adobe Illustrator 14.0.0, SVG Export Plug-In . SVG Version: 6.00 Build 43363)  -->
<!DOCTYPE svg PUBLIC "-//W3C//DTD SVG 1.1//EN" "http://www.w3.org/Graphics/SVG/1.1/DTD/svg11.dtd">
<svg version="1.1" id="Layer_1" xmlns="http://www.w3.org/2000/svg" xmlns:xlink="http://www.w3.org/1999/xlink" x="0px" y="0px"
	 width="150px" height="48.5px" viewBox="0 0 150 48.5" enable-background="new 0 0 150 48.5" xml:space="preserve">
<g>
	<path fill="#2E7B3C" d="M16.851,27.575h6.668c1.437,1.781,2.154,3.659,2.154,5.635c0,2.299-0.842,4.229-2.524,5.79
		c-1.684,1.563-3.754,2.344-6.212,2.344c-3.194,0-5.905-1.212-8.134-3.636S5.46,32.332,5.46,28.851c0-3.492,1.135-6.398,3.403-8.72
		c2.269-2.319,5.104-3.479,8.504-3.479c1.16,0,2.447,0.234,3.859,0.706v6.996c-1.103-0.517-2.107-0.775-3.015-0.775
		c-1.644,0-2.984,0.512-4.024,1.533c-1.039,1.023-1.559,2.35-1.559,3.98c0,1.666,0.481,2.987,1.447,3.964
		c0.965,0.977,2.269,1.465,3.911,1.465c1.045,0,1.568-0.305,1.568-0.913c0-0.46-0.345-0.69-1.034-0.69h-1.671V27.575z"/>
	<path fill="#2E7B3C" d="M42.45,33.21H32.68c-0.149-0.493-0.224-0.947-0.224-1.361c0-0.573,0.104-1.137,0.311-1.688h3.273
		c-0.229-1.274-0.947-1.912-2.153-1.912c-0.805,0-1.459,0.342-1.965,1.025s-0.759,1.56-0.759,2.628c0,1.114,0.244,2.016,0.733,2.705
		c0.487,0.689,1.128,1.033,1.921,1.033c0.644,0,1.264-0.321,1.861-0.964l3.67,4.411c-1.712,1.344-3.613,2.016-5.704,2.016
		c-2.55,0-4.692-0.855-6.427-2.567c-1.735-1.711-2.603-3.831-2.603-6.358c0-2.517,0.876-4.642,2.628-6.376s3.903-2.602,6.453-2.602
		c2.493,0,4.587,0.847,6.281,2.541c1.694,1.695,2.542,3.783,2.542,6.264C42.52,32.257,42.496,32.659,42.45,33.21z"/>
	<path fill="#2E7B3C" d="M50.802,23.216c2.436,0,4.523,0.876,6.264,2.628s2.61,3.852,2.61,6.298c0,2.482-0.882,4.596-2.645,6.342
		c-1.764,1.746-3.893,2.619-6.385,2.619c-2.493,0-4.624-0.876-6.394-2.628c-1.769-1.751-2.653-3.862-2.653-6.333
		c0-2.516,0.885-4.632,2.653-6.35C46.022,24.075,48.205,23.216,50.802,23.216z M50.63,29.574c-0.69,0-1.276,0.25-1.758,0.75
		c-0.483,0.5-0.725,1.112-0.725,1.835c0,0.713,0.244,1.321,0.732,1.827c0.488,0.505,1.071,0.758,1.75,0.758
		c0.688,0,1.277-0.253,1.766-0.758c0.488-0.506,0.732-1.114,0.732-1.827c0-0.723-0.241-1.335-0.724-1.835S51.33,29.574,50.63,29.574
		z"/>
	<path fill="#6DBE45" d="M59.894,40.758V23.802c0-2.103,0.638-3.819,1.913-5.151c1.275-1.333,2.929-1.999,4.963-1.999
		c2.412,0,4.268,1.108,5.565,3.325c0.793-1.195,1.643-2.048,2.551-2.559c0.907-0.512,2.027-0.767,3.359-0.767
		c2.114,0,3.733,0.666,4.86,1.999c1.126,1.332,1.688,3.251,1.688,5.755v16.353h-6.996V25.457c0-0.759-0.061-1.262-0.181-1.509
		c-0.121-0.247-0.365-0.37-0.733-0.37c-0.689,0-1.033,0.586-1.033,1.758v15.422h-6.996V25.457c0-0.747-0.063-1.247-0.19-1.5
		c-0.126-0.253-0.373-0.379-0.74-0.379c-0.689,0-1.034,0.626-1.034,1.879v15.301H59.894z"/>
	<path fill="#6DBE45" d="M94.23,23.216c2.435,0,4.523,0.876,6.264,2.628c1.741,1.752,2.611,3.852,2.611,6.298
		c0,2.482-0.883,4.596-2.646,6.342c-1.764,1.746-3.892,2.619-6.385,2.619s-4.623-0.876-6.394-2.628
		c-1.769-1.751-2.653-3.862-2.653-6.333c0-2.516,0.885-4.632,2.653-6.35C89.452,24.075,91.635,23.216,94.23,23.216z M94.059,29.574
		c-0.689,0-1.275,0.25-1.758,0.75s-0.724,1.112-0.724,1.835c0,0.713,0.244,1.321,0.731,1.827c0.489,0.505,1.072,0.758,1.75,0.758
		c0.688,0,1.277-0.253,1.767-0.758c0.487-0.506,0.731-1.114,0.731-1.827c0-0.723-0.241-1.335-0.724-1.835
		S94.759,29.574,94.059,29.574z"/>
	<path fill="#6DBE45" d="M111.473,23.216c2.437,0,4.524,0.876,6.265,2.628s2.61,3.852,2.61,6.298c0,2.482-0.881,4.596-2.646,6.342
		c-1.764,1.746-3.892,2.619-6.385,2.619c-2.492,0-4.623-0.876-6.392-2.628c-1.771-1.751-2.653-3.862-2.653-6.333
		c0-2.516,0.883-4.632,2.653-6.35C106.694,24.075,108.877,23.216,111.473,23.216z M111.301,29.574c-0.689,0-1.275,0.25-1.758,0.75
		s-0.724,1.112-0.724,1.835c0,0.713,0.244,1.321,0.732,1.827c0.488,0.505,1.071,0.758,1.749,0.758c0.689,0,1.278-0.253,1.767-0.758
		c0.488-0.506,0.732-1.114,0.732-1.827c0-0.723-0.241-1.335-0.724-1.835S112.001,29.574,111.301,29.574z"/>
	<path fill="#6DBE45" d="M131.335,23.819v6.789c-0.907,0-1.53,0.17-1.87,0.509c-0.338,0.339-0.554,1.008-0.646,2.007
		c-0.299,3.32-1.585,5.664-3.859,7.031c-1.206,0.712-2.919,1.068-5.136,1.068h-0.896v-6.824h0.293c1.034,0,1.771-0.215,2.214-0.646
		c0.442-0.431,0.698-1.186,0.768-2.266c0.091-1.758,0.255-2.992,0.49-3.705c0.236-0.712,0.716-1.418,1.439-2.119
		c1.264-1.229,3.015-1.844,5.256-1.844H131.335z"/>
	<path fill="#6DBE45" d="M147.854,33.21h-9.77c-0.15-0.493-0.225-0.947-0.225-1.361c0-0.573,0.103-1.137,0.31-1.688h3.274
		c-0.23-1.274-0.947-1.912-2.154-1.912c-0.804,0-1.459,0.342-1.964,1.025c-0.506,0.684-0.758,1.56-0.758,2.628
		c0,1.114,0.243,2.016,0.731,2.705s1.129,1.033,1.922,1.033c0.643,0,1.264-0.321,1.86-0.964l3.671,4.411
		c-1.712,1.344-3.613,2.016-5.704,2.016c-2.55,0-4.692-0.855-6.427-2.567c-1.735-1.711-2.603-3.831-2.603-6.358
		c0-2.517,0.876-4.642,2.628-6.376s3.903-2.602,6.453-2.602c2.492,0,4.587,0.847,6.281,2.541c1.694,1.695,2.542,3.783,2.542,6.264
		C147.924,32.257,147.9,32.659,147.854,33.21z"/>
	<path fill="#6DBE45" d="M86.435,15.292c0,0,6.923-4.895,7.519-5.263c0.601-0.371-2.314-5.695-3.696-4.772
		c-1.307,0.874,2.027,4.17,1.173,4.684c-1.015,0.61-2.118-2.464-3.009-1.832c-1.25,0.883,1.488,3.015,0.703,3.568
		c-0.999,0.707-1.514-1.552-2.271-1.017c-0.892,0.631,0.76,1.859,0.318,2.345c-0.812,0.895-2.42,1.496-2.42,1.496L86.435,15.292z"/>
	<path fill="#6DBE45" d="M83.426,16.456c0,0-12.437-3.055-13.478-3.244c-1.05-0.189,0.106-9.286,2.558-8.751
		c2.322,0.506-0.545,6.981,0.942,7.232c1.763,0.298,1.614-4.633,3.217-4.239c2.244,0.552-0.428,5.061,0.983,5.407
		c1.795,0.441,1.271-3.02,2.63-2.686c1.604,0.396-0.04,3.032,0.848,3.472c1.636,0.81,4.23,0.768,4.23,0.768L83.426,16.456z"/>
	<path fill-rule="evenodd" clip-rule="evenodd" fill="#6DBE45" d="M88.586,19.578c2.558-0.855,5.692,0.174,7.352-1.269
		c-0.2-4.531-5.737-3.725-9.633-4.563c1.71-0.742-0.323-0.13-1.957,0.424c-2.488-0.591-7.255,3.641-6.154,3.886
		c1.47,0.117,0.797,2.252,0.53,2.627c1.995,1.864,3.476,3.693,6.067,4.291C84.979,24.26,88.446,20.341,88.586,19.578z"/>
</g>
</svg>
