<?xml version="1.0" encoding="UTF-8" standalone="no"?>
<!-- Generator: Adobe Illustrator 14.0.0, SVG Export Plug-In . SVG Version: 6.00 Build 43363)  -->

<svg
   xmlns:dc="http://purl.org/dc/elements/1.1/"
   xmlns:cc="http://creativecommons.org/ns#"
   xmlns:rdf="http://www.w3.org/1999/02/22-rdf-syntax-ns#"
   xmlns:svg="http://www.w3.org/2000/svg"
   xmlns="http://www.w3.org/2000/svg"
   xmlns:xlink="http://www.w3.org/1999/xlink"
   xmlns:sodipodi="http://sodipodi.sourceforge.net/DTD/sodipodi-0.dtd"
   xmlns:inkscape="http://www.inkscape.org/namespaces/inkscape"
   version="1.1"
   id="Layer_1"
   x="0px"
   y="0px"
   width="400"
   height="400"
   viewBox="0 0 400 400"
   enable-background="new 0 0 360 144"
   xml:space="preserve"
   inkscape:version="0.48.3.1 r9886"
   sodipodi:docname="icon.svg"
   inkscape:export-filename="icon.png"
   inkscape:export-xdpi="115.2"
   inkscape:export-ydpi="115.2"><metadata
   id="metadata31"><rdf:RDF><cc:Work
       rdf:about=""><dc:format>image/svg+xml</dc:format><dc:type
         rdf:resource="http://purl.org/dc/dcmitype/StillImage" /><dc:title></dc:title></cc:Work></rdf:RDF></metadata><defs
   id="defs29"><filter
     inkscape:collect="always"
     id="filter3770"><feGaussianBlur
       inkscape:collect="always"
       stdDeviation="0.83651509"
       id="feGaussianBlur3772" /></filter></defs><sodipodi:namedview
   pagecolor="#ffffff"
   bordercolor="#666666"
   borderopacity="1"
   objecttolerance="10"
   gridtolerance="10"
   guidetolerance="10"
   inkscape:pageopacity="0"
   inkscape:pageshadow="2"
   inkscape:window-width="1440"
   inkscape:window-height="880"
   id="namedview27"
   showgrid="false"
   inkscape:zoom="1.2056171"
   inkscape:cx="-6.6553275"
   inkscape:cy="-34.604106"
   inkscape:window-x="0"
   inkscape:window-y="0"
   inkscape:window-maximized="1"
   inkscape:current-layer="Layer_1"><inkscape:grid
     type="xygrid"
     id="grid2994" /></sodipodi:namedview>
<rect
   style="opacity:1;fill:#ffffff;fill-opacity:1;stroke:none;stroke-width:5;stroke-miterlimit:4;stroke-opacity:1;stroke-dasharray:none"
   id="rect2996"
   width="400"
   height="400"
   x="0"
   y="0" /><image
   xlink:href="map.png"
   style="opacity:0.1;filter:url(#filter3770)"
   transform="matrix(0.81565936,0.57853247,-0.57853247,0.81565936,0,0)"
   width="600"
   height="600"
   id="image3194"
   x="-27.96121"
   y="-234.50496" /><g
   id="g3"
   transform="translate(11.4185,118.35881)">
	<path
   d="m 50.096,82.481 h 15.433 c 3.323,4.122 4.985,8.468 4.985,13.04 0,5.318 -1.948,9.784 -5.842,13.398 -3.895,3.616 -8.687,5.424 -14.376,5.424 -7.391,0 -13.665,-2.804 -18.822,-8.414 -5.158,-5.609 -7.736,-12.441 -7.736,-20.497 0,-8.081 2.625,-14.807 7.876,-20.178 5.25,-5.369 11.81,-8.054 19.679,-8.054 2.685,0 5.663,0.544 8.932,1.634 v 16.19 c -2.552,-1.195 -4.878,-1.794 -6.978,-1.794 -3.802,0 -6.906,1.184 -9.312,3.549 -2.406,2.367 -3.608,5.438 -3.608,9.212 0,3.854 1.116,6.913 3.349,9.172 2.233,2.26 5.25,3.39 9.053,3.39 2.418,0 3.629,-0.705 3.629,-2.113 0,-1.063 -0.798,-1.596 -2.393,-1.596 H 50.096 V 82.481 z"
   id="path5"
   inkscape:connector-curvature="0"
   style="fill:#2e7b3c" />
	<path
   d="m 109.339,95.521 h -22.61 c -0.346,-1.143 -0.518,-2.193 -0.518,-3.15 0,-1.328 0.239,-2.632 0.717,-3.907 h 7.577 c -0.532,-2.951 -2.193,-4.427 -4.984,-4.427 -1.861,0 -3.376,0.791 -4.546,2.373 -1.171,1.582 -1.755,3.609 -1.755,6.082 0,2.578 0.565,4.664 1.695,6.26 1.129,1.596 2.612,2.393 4.446,2.393 1.489,0 2.924,-0.744 4.307,-2.232 l 8.494,10.208 c -3.961,3.11 -8.361,4.666 -13.199,4.666 -5.902,0 -10.86,-1.98 -14.874,-5.942 -4.015,-3.96 -6.022,-8.865 -6.022,-14.715 0,-5.822 2.027,-10.74 6.082,-14.754 4.053,-4.014 9.032,-6.022 14.934,-6.022 5.769,0 10.614,1.961 14.535,5.881 3.921,3.923 5.882,8.754 5.882,14.496 -0.001,0.584 -0.055,1.515 -0.161,2.79 z"
   id="path7"
   inkscape:connector-curvature="0"
   style="fill:#2e7b3c" />
	<path
   d="m 128.665,72.393 c 5.637,0 10.468,2.027 14.496,6.082 4.028,4.054 6.042,8.912 6.042,14.574 0,5.743 -2.041,10.635 -6.121,14.676 -4.08,4.041 -9.006,6.062 -14.774,6.062 -5.77,0 -10.701,-2.027 -14.795,-6.082 -4.094,-4.053 -6.141,-8.938 -6.141,-14.655 0,-5.822 2.047,-10.72 6.141,-14.694 4.093,-3.975 9.144,-5.963 15.152,-5.963 z m -0.398,14.714 c -1.596,0 -2.952,0.578 -4.068,1.734 -1.117,1.157 -1.675,2.574 -1.675,4.248 0,1.648 0.564,3.057 1.695,4.227 1.13,1.17 2.479,1.755 4.048,1.755 1.594,0 2.957,-0.585 4.087,-1.755 1.13,-1.17 1.695,-2.578 1.695,-4.227 0,-1.674 -0.558,-3.091 -1.674,-4.248 -1.117,-1.155 -2.487,-1.734 -4.108,-1.734 z"
   id="path9"
   inkscape:connector-curvature="0"
   style="fill:#2e7b3c" />
	<path
   d="M 149.706,112.988 V 73.749 c 0,-4.865 1.476,-8.84 4.427,-11.923 2.951,-3.084 6.779,-4.626 11.484,-4.626 5.583,0 9.876,2.565 12.881,7.696 1.834,-2.765 3.802,-4.738 5.901,-5.921 2.101,-1.183 4.692,-1.774 7.776,-1.774 4.893,0 8.639,1.542 11.246,4.626 2.605,3.083 3.908,7.523 3.908,13.318 v 37.844 h -16.191 v -35.41 c 0,-1.756 -0.14,-2.918 -0.418,-3.49 -0.279,-0.571 -0.845,-0.857 -1.695,-0.857 -1.596,0 -2.393,1.356 -2.393,4.067 v 35.69 h -16.19 v -35.41 c 0,-1.729 -0.146,-2.886 -0.439,-3.471 -0.292,-0.584 -0.863,-0.877 -1.714,-0.877 -1.595,0 -2.393,1.449 -2.393,4.348 v 35.41 h -16.19 z"
   id="path11"
   inkscape:connector-curvature="0"
   style="fill:#6dbe45" />
	<path
   d="m 229.168,72.393 c 5.635,0 10.469,2.027 14.496,6.082 4.027,4.054 6.041,8.912 6.041,14.574 0,5.743 -2.041,10.635 -6.121,14.676 -4.082,4.041 -9.006,6.062 -14.775,6.062 -5.769,0 -10.699,-2.027 -14.795,-6.082 -4.094,-4.053 -6.141,-8.938 -6.141,-14.655 0,-5.822 2.047,-10.72 6.141,-14.694 4.095,-3.975 9.146,-5.963 15.154,-5.963 z m -0.398,14.714 c -1.596,0 -2.951,0.578 -4.068,1.734 -1.115,1.157 -1.674,2.574 -1.674,4.248 0,1.648 0.564,3.057 1.693,4.227 1.131,1.17 2.48,1.755 4.049,1.755 1.594,0 2.957,-0.585 4.088,-1.755 1.129,-1.17 1.693,-2.578 1.693,-4.227 0,-1.674 -0.559,-3.091 -1.674,-4.248 -1.117,-1.155 -2.486,-1.734 -4.107,-1.734 z"
   id="path13"
   inkscape:connector-curvature="0"
   style="fill:#6dbe45" />
	<path
   d="m 269.07,72.393 c 5.637,0 10.469,2.027 14.496,6.082 4.027,4.054 6.041,8.912 6.041,14.574 0,5.743 -2.039,10.635 -6.121,14.676 -4.082,4.041 -9.006,6.062 -14.775,6.062 -5.768,0 -10.699,-2.027 -14.793,-6.082 -4.096,-4.053 -6.141,-8.938 -6.141,-14.655 0,-5.822 2.045,-10.72 6.141,-14.694 4.094,-3.975 9.145,-5.963 15.152,-5.963 z m -0.398,14.714 c -1.596,0 -2.951,0.578 -4.068,1.734 -1.115,1.157 -1.674,2.574 -1.674,4.248 0,1.648 0.564,3.057 1.695,4.227 1.129,1.17 2.479,1.755 4.047,1.755 1.596,0 2.957,-0.585 4.088,-1.755 1.129,-1.17 1.695,-2.578 1.695,-4.227 0,-1.674 -0.559,-3.091 -1.676,-4.248 -1.115,-1.155 -2.486,-1.734 -4.107,-1.734 z"
   id="path15"
   inkscape:connector-curvature="0"
   style="fill:#6dbe45" />
	<path
   d="M 315.035,73.789 V 89.5 c -2.102,0 -3.543,0.393 -4.328,1.177 -0.783,0.784 -1.281,2.333 -1.494,4.646 -0.691,7.684 -3.668,13.106 -8.932,16.271 -2.791,1.648 -6.754,2.473 -11.885,2.473 h -2.072 V 98.273 h 0.678 c 2.393,0 4.1,-0.498 5.123,-1.496 1.023,-0.996 1.615,-2.744 1.775,-5.244 0.211,-4.066 0.59,-6.924 1.137,-8.572 0.545,-1.648 1.654,-3.283 3.33,-4.905 2.924,-2.844 6.977,-4.267 12.162,-4.267 h 4.506 z"
   id="path17"
   inkscape:connector-curvature="0"
   style="fill:#6dbe45" />
	<path
   d="m 353.264,95.521 h -22.609 c -0.348,-1.143 -0.52,-2.193 -0.52,-3.15 0,-1.328 0.238,-2.632 0.717,-3.907 h 7.578 c -0.533,-2.951 -2.193,-4.427 -4.986,-4.427 -1.859,0 -3.375,0.791 -4.545,2.373 -1.17,1.582 -1.754,3.609 -1.754,6.082 0,2.578 0.564,4.664 1.693,6.26 1.131,1.596 2.613,2.393 4.447,2.393 1.488,0 2.924,-0.744 4.307,-2.232 l 8.494,10.208 c -3.963,3.11 -8.361,4.666 -13.201,4.666 -5.9,0 -10.859,-1.98 -14.873,-5.942 -4.016,-3.96 -6.021,-8.865 -6.021,-14.715 0,-5.822 2.027,-10.74 6.082,-14.754 4.053,-4.014 9.031,-6.022 14.934,-6.022 5.768,0 10.613,1.961 14.535,5.881 3.922,3.923 5.883,8.754 5.883,14.496 -0.001,0.584 -0.056,1.515 -0.161,2.79 z"
   id="path19"
   inkscape:connector-curvature="0"
   style="fill:#6dbe45" />
	<path
   d="m 211.127,54.054 c 0,0 16.02,-11.325 17.398,-12.178 1.391,-0.859 -5.355,-13.18 -8.553,-11.045 -3.025,2.023 4.691,9.65 2.713,10.84 -2.348,1.412 -4.9,-5.701 -6.963,-4.241 -2.893,2.043 3.445,6.977 1.629,8.259 -2.313,1.636 -3.504,-3.591 -5.256,-2.353 -2.063,1.459 1.758,4.301 0.738,5.425 -1.879,2.069 -5.602,3.462 -5.602,3.462 l 3.896,1.831 z"
   id="path21"
   inkscape:connector-curvature="0"
   style="fill:#6dbe45" />
	<path
   d="m 204.164,56.749 c 0,0 -28.78,-7.069 -31.19,-7.507 -2.428,-0.438 0.246,-21.489 5.92,-20.25 5.374,1.169 -1.263,16.156 2.179,16.736 4.079,0.688 3.737,-10.722 7.445,-9.811 5.192,1.276 -0.989,11.711 2.274,12.514 4.154,1.02 2.941,-6.989 6.088,-6.216 3.709,0.915 -0.094,7.018 1.961,8.034 3.785,1.875 9.789,1.776 9.789,1.776 l -4.466,4.724 z"
   id="path23"
   inkscape:connector-curvature="0"
   style="fill:#6dbe45" />
	<path
   clip-rule="evenodd"
   d="m 216.105,63.974 c 5.918,-1.979 13.174,0.403 17.012,-2.934 -0.463,-10.487 -13.277,-8.621 -22.291,-10.56 3.957,-1.718 -0.748,-0.301 -4.529,0.981 -5.758,-1.369 -16.789,8.424 -14.242,8.992 3.4,0.271 1.844,5.21 1.227,6.079 4.617,4.313 8.045,8.547 14.043,9.931 0.435,-1.655 8.456,-10.723 8.78,-12.489 z"
   id="path25"
   inkscape:connector-curvature="0"
   style="fill:#6dbe45;fill-rule:evenodd" />
</g>
</svg>
