<?xml version="1.0" encoding="utf-8"?>
<!-- Generator: Adobe Illustrator 14.0.0, SVG Export Plug-In . SVG Version: 6.00 Build 43363)  -->
<!DOCTYPE svg PUBLIC "-//W3C//DTD SVG 1.1//EN" "http://www.w3.org/Graphics/SVG/1.1/DTD/svg11.dtd">
<svg version="1.1" id="Layer_1" xmlns="http://www.w3.org/2000/svg" xmlns:xlink="http://www.w3.org/1999/xlink" x="0px" y="0px"
	 width="16px" height="16px" viewBox="0 0 16 16" enable-background="new 0 0 16 16" xml:space="preserve">
<g>
	<path fill="#6DBE45" d="M1.246,16V9.06c0-0.861,0.26-1.563,0.783-2.109c0.522-0.545,1.199-0.817,2.032-0.817
		c0.987,0,1.747,0.453,2.278,1.36c0.324-0.488,0.672-0.837,1.044-1.047c0.372-0.208,0.83-0.313,1.376-0.313
		c0.865,0,1.527,0.272,1.988,0.817c0.461,0.546,0.691,1.331,0.691,2.356V16H8.575V9.736c0-0.311-0.025-0.516-0.074-0.617
		c-0.049-0.101-0.15-0.151-0.3-0.151c-0.282,0-0.423,0.24-0.423,0.719V16H4.914V9.736c0-0.306-0.026-0.51-0.078-0.613
		S4.683,8.968,4.533,8.968c-0.282,0-0.423,0.256-0.423,0.769V16H1.246z"/>
	<path fill="#6DBE45" d="M12.109,5.576c0,0,2.834-2.003,3.078-2.155s-0.947-2.331-1.512-1.953c-0.535,0.358,0.828,1.708,0.479,1.918
		c-0.416,0.25-0.865-1.009-1.232-0.75c-0.512,0.361,0.609,1.234,0.289,1.461c-0.408,0.289-0.619-0.635-0.93-0.417
		c-0.365,0.258,0.311,0.761,0.129,0.959c-0.332,0.366-0.988,0.612-0.988,0.612L12.109,5.576z"/>
	<path fill="#6DBE45" d="M10.879,6.052c0,0-5.091-1.25-5.518-1.327C4.933,4.647,5.405,0.923,6.409,1.143
		C7.359,1.35,6.185,4,6.794,4.103c0.721,0.122,0.661-1.896,1.316-1.735c0.918,0.225-0.175,2.071,0.403,2.213
		c0.734,0.18,0.52-1.236,1.076-1.1c0.656,0.162-0.016,1.242,0.348,1.422c0.67,0.331,1.73,0.314,1.73,0.314L10.879,6.052z"/>
	<path fill-rule="evenodd" clip-rule="evenodd" fill="#6DBE45" d="M12.99,7.331c1.047-0.351,2.33,0.07,3.01-0.52
		c-0.082-1.855-2.35-1.524-3.943-1.868c0.699-0.304-0.133-0.053-0.801,0.174c-1.02-0.242-2.969,1.49-2.52,1.59
		c0.602,0.048,0.327,0.921,0.217,1.075c0.816,0.764,1.424,1.511,2.484,1.756C11.514,9.247,12.934,7.643,12.99,7.331z"/>
</g>
</svg>
