<?xml version="1.0" encoding="utf-8"?>
<!-- Generator: Adobe Illustrator 14.0.0, SVG Export Plug-In . SVG Version: 6.00 Build 43363)  -->
<!DOCTYPE svg PUBLIC "-//W3C//DTD SVG 1.1//EN" "http://www.w3.org/Graphics/SVG/1.1/DTD/svg11.dtd">
<svg version="1.1" id="Layer_1" xmlns="http://www.w3.org/2000/svg" xmlns:xlink="http://www.w3.org/1999/xlink" x="0px" y="0px"
	 width="32px" height="32px" viewBox="0 0 32 32" enable-background="new 0 0 32 32" xml:space="preserve">
<path fill="#6DBE45" d="M1.789,30.863V17.282c0-1.684,0.511-3.06,1.532-4.127s2.346-1.601,3.975-1.601
	c1.933,0,3.418,0.888,4.458,2.663c0.635-0.957,1.316-1.64,2.043-2.049c0.727-0.41,1.624-0.614,2.691-0.614
	c1.693,0,2.989,0.533,3.893,1.601c0.901,1.067,1.353,2.604,1.353,4.61v13.098h-5.604V18.607c0-0.607-0.048-1.01-0.145-1.208
	c-0.097-0.197-0.292-0.297-0.587-0.297c-0.552,0-0.828,0.47-0.828,1.408v12.353H8.966V18.607c0-0.599-0.051-0.999-0.151-1.201
	c-0.102-0.202-0.299-0.304-0.594-0.304c-0.552,0-0.828,0.502-0.828,1.505v12.256H1.789z"/>
<path fill="#6DBE45" d="M23.047,10.466c0,0,5.545-3.92,6.022-4.215c0.481-0.298-1.854-4.562-2.961-3.823
	c-1.047,0.7,1.624,3.341,0.939,3.752c-0.813,0.489-1.696-1.973-2.41-1.468c-1.001,0.707,1.192,2.415,0.564,2.858
	c-0.801,0.566-1.213-1.242-1.819-0.813c-0.714,0.505,0.608,1.488,0.255,1.877c-0.65,0.717-1.938,1.198-1.938,1.198L23.047,10.466z"
	/>
<path fill="#6DBE45" d="M20.638,11.398c0,0-9.961-2.446-10.796-2.599c-0.84-0.151,0.086-7.437,2.05-7.008
	c1.859,0.405-0.438,5.591,0.754,5.792c1.412,0.238,1.293-3.711,2.577-3.396C17.02,4.63,14.88,8.242,16.01,8.52
	c1.438,0.353,1.018-2.419,2.106-2.151c1.284,0.316-0.032,2.429,0.679,2.781c1.311,0.648,3.389,0.614,3.389,0.614L20.638,11.398z"/>
<path fill-rule="evenodd" clip-rule="evenodd" fill="#6DBE45" d="M24.771,13.899c2.048-0.686,4.56,0.139,5.888-1.016
	c-0.16-3.63-4.596-2.984-7.715-3.655c1.369-0.595-0.259-0.104-1.568,0.34c-1.992-0.474-5.811,2.915-4.929,3.112
	c1.177,0.094,0.638,1.804,0.424,2.104c1.599,1.493,2.785,2.958,4.861,3.438C21.882,17.648,24.658,14.511,24.771,13.899z"/>
</svg>
