<?xml version="1.0" encoding="utf-8"?>
<!-- Generator: Adobe Illustrator 14.0.0, SVG Export Plug-In . SVG Version: 6.00 Build 43363)  -->
<!DOCTYPE svg PUBLIC "-//W3C//DTD SVG 1.1//EN" "http://www.w3.org/Graphics/SVG/1.1/DTD/svg11.dtd">
<svg version="1.1" id="Layer_1" xmlns="http://www.w3.org/2000/svg" xmlns:xlink="http://www.w3.org/1999/xlink" x="0px" y="0px"
	 width="64px" height="64px" viewBox="0 0 64 64" enable-background="new 0 0 64 64" xml:space="preserve">
<path fill="#6DBE45" d="M3.039,59.988V32.823c0-3.368,1.021-6.119,3.064-8.254s4.693-3.202,7.951-3.202
	c3.865,0,6.837,1.775,8.917,5.327c1.27-1.914,2.632-3.28,4.085-4.099c1.454-0.819,3.249-1.229,5.384-1.229
	c3.387,0,5.979,1.067,7.785,3.202c1.804,2.135,2.706,5.209,2.706,9.221v26.198H31.722V35.475c0-1.216-0.097-2.021-0.289-2.416
	c-0.193-0.396-0.585-0.594-1.174-0.594c-1.104,0-1.656,0.938-1.656,2.815v24.708H17.395V35.475c0-1.197-0.102-1.998-0.304-2.403
	c-0.202-0.404-0.598-0.606-1.187-0.606c-1.104,0-1.656,1.003-1.656,3.01v24.514H3.039z"/>
<path fill="#6DBE45" d="M45.56,19.189c0,0,11.091-7.841,12.045-8.431c0.963-0.595-3.707-9.125-5.921-7.646
	c-2.095,1.401,3.248,6.681,1.878,7.504c-1.625,0.978-3.393-3.947-4.82-2.936c-2.002,1.415,2.386,4.83,1.128,5.718
	c-1.601,1.132-2.426-2.486-3.639-1.629c-1.428,1.011,1.217,2.978,0.511,3.756c-1.301,1.433-3.878,2.397-3.878,2.397L45.56,19.189z"
	/>
<path fill="#6DBE45" d="M40.74,21.055c0,0-19.925-4.894-21.593-5.197c-1.681-0.303,0.17-14.876,4.099-14.019
	c3.72,0.81-0.875,11.185,1.508,11.586c2.824,0.477,2.587-7.423,5.154-6.792c3.595,0.884-0.685,8.108,1.575,8.664
	c2.876,0.706,2.037-4.838,4.214-4.303c2.568,0.633-0.064,4.858,1.357,5.562c2.621,1.298,6.777,1.229,6.777,1.229L40.74,21.055z"/>
<path fill-rule="evenodd" clip-rule="evenodd" fill="#6DBE45" d="M49.007,26.057c4.097-1.37,9.119,0.278,11.776-2.031
	c-0.32-7.261-9.191-5.968-15.432-7.311c2.739-1.189-0.518-0.208-3.136,0.679c-3.985-0.947-11.623,5.832-9.859,6.225
	c2.354,0.188,1.276,3.607,0.849,4.208c3.197,2.986,5.57,5.917,9.723,6.875C43.229,33.557,48.782,27.279,49.007,26.057z"/>
</svg>
